# xmcd
#
# Track frame offsets:
# 150
# 19194
# 36120
# 50727
# 66880
# 88570
# 114746
# 139324
# 159076
# 182435
# 210221
# 256935
# 290187
# 310440
#
# Disc length: 4489 seconds
#
# Revision: 1
# Processed by: cddbd v1.5.2PL0 Copyright (c) Steve Scherf et al.
# Submitted via: CedeCatalogueitor 2.6.0.6 http://personales.ya.com/cdcatalogueitor
#
DISCID=c611870e
DTITLE=Varios Artistas - Fania Records 1964-1980: The Original Sound Of Latin New York
DYEAR=1900
DGENRE=
TTITLE0=Ray Barretto
TTITLE1=Willie Colon
TTITLE2=Roberto Roena
TTITLE3=Bobby Valentin
TTITLE4=Celia Cruz and Johnny Pacheco
TTITLE5=Tommy Olivencia
TTITLE6=Hector Lavoe
TTITLE7=Mongo Santamiaria
TTITLE8=Sonora Poncena
TTITLE9=Ruben Blades and Willie Colon
TTITLE10=Hector Lavoe
TTITLE11=Ruben Blades and Willie Colon
TTITLE12=Celia Cruz Y Sonora Poncena
TTITLE13=Fania Alla Stars 6 Celia Cruz
EXTD=
EXTT0=
EXTT1=
EXTT2=
EXTT3=
EXTT4=
EXTT5=
EXTT6=
EXTT7=
EXTT8=
EXTT9=
EXTT10=
EXTT11=
EXTT12=
EXTT13=
PLAYORDER=
